<svg width="64" height="64" viewBox="0 0 24 24" fill="none" xmlns="http://www.w3.org/2000/svg">
  <path d="M12 8.25C9.93 8.25 8.25 9.93 8.25 12C8.25 14.07 9.93 15.75 12 15.75C14.07 15.75 15.75 14.07 15.75 12C15.75 9.93 14.07 8.25 12 8.25Z" stroke="#EEF3FA" stroke-width="1.6"/>
  <path d="M18.22 14.12L19.35 14.77C19.68 14.96 19.79 15.37 19.6 15.7L18.7 17.26C18.51 17.59 18.1 17.7 17.77 17.51L16.64 16.86C16.14 17.29 15.57 17.64 14.95 17.88V19.18C14.95 19.56 14.64 19.87 14.26 19.87H12.46C12.08 19.87 11.77 19.56 11.77 19.18V17.88C11.15 17.64 10.58 17.29 10.08 16.86L8.95 17.51C8.62 17.7 8.21 17.59 8.02 17.26L7.12 15.7C6.93 15.37 7.04 14.96 7.37 14.77L8.5 14.12C8.45 13.77 8.42 13.39 8.42 13C8.42 12.61 8.45 12.23 8.5 11.88L7.37 11.23C7.04 11.04 6.93 10.63 7.12 10.3L8.02 8.74C8.21 8.41 8.62 8.3 8.95 8.49L10.08 9.14C10.58 8.71 11.15 8.36 11.77 8.12V6.82C11.77 6.44 12.08 6.13 12.46 6.13H14.26C14.64 6.13 14.95 6.44 14.95 6.82V8.12C15.57 8.36 16.14 8.71 16.64 9.14L17.77 8.49C18.1 8.3 18.51 8.41 18.7 8.74L19.6 10.3C19.79 10.63 19.68 11.04 19.35 11.23L18.22 11.88C18.27 12.23 18.3 12.61 18.3 13C18.3 13.39 18.27 13.77 18.22 14.12Z" stroke="#EEF3FA" stroke-width="1.3" stroke-linejoin="round"/>
</svg>
