<svg width="128" height="128" viewBox="0 0 128 128" fill="none" xmlns="http://www.w3.org/2000/svg">
  <defs>
    <linearGradient id="g1" x1="24" y1="20" x2="100" y2="102" gradientUnits="userSpaceOnUse">
      <stop stop-color="#F7D36A"/>
      <stop offset="1" stop-color="#8FD3FF"/>
    </linearGradient>
  </defs>
  <circle cx="47" cy="43" r="18" fill="url(#g1)"/>
  <path d="M51 88C38.2975 88 28 77.7025 28 65C28 52.2975 38.2975 42 51 42C59.4807 42 66.8889 46.5994 70.8654 53.4329C72.5325 52.8208 74.3335 52.4865 76.2126 52.4865C84.6644 52.4865 91.5135 59.3356 91.5135 67.7874C91.5135 68.6998 91.4334 69.5935 91.2798 70.4619C98.137 71.9013 103.284 77.979 103.284 85.2635C103.284 93.6187 96.5113 100.391 88.1561 100.391H51C44.3726 100.391 39 95.0184 39 88.391C39 88.2584 39.0022 88.1262 39.0065 87.9945C42.5538 88.6465 46.4132 88 51 88Z" fill="rgba(255,255,255,0.94)"/>
</svg>